<?xml version="1.0" encoding="utf-8"?>
<!-- Generator: Adobe Illustrator 19.1.0, SVG Export Plug-In . SVG Version: 6.00 Build 0)  -->
<svg version="1.1" id="Layer_1" xmlns="http://www.w3.org/2000/svg" xmlns:xlink="http://www.w3.org/1999/xlink" x="0px" y="0px"
	 viewBox="0 0 888 140" style="enable-background:new 0 0 888 140;" xml:space="preserve">
<style type="text/css">
	.st0{fill:none;stroke:#243C7B;stroke-width:2;stroke-linecap:round;stroke-linejoin:round;}
	.st1{fill:#A0CEE9;}
	.st2{fill:#E7CC9C;}
	.st3{fill:#243C7B;}
</style>
<g>
	<path class="st0" d="M23.1,84.5c-9.1-4.2-14.5-9.4-14.5-15C8.5,55.4,42.8,44,85.1,44s76.6,11.4,76.6,25.5
		c0,14.1-34.3,25.5-76.6,25.5c-19.2,0-36.8-2.4-50.3-6.3"/>
</g>
<g>
	<path class="st0" d="M128.3,110c2.3,13,0.8,22.5-4.9,25.8c-12.2,7.1-39.3-16.9-60.4-53.5s-28.4-72-16.2-79.1
		C59-3.8,86.1,20.1,107.2,56.8c8.4,14.5,14.6,28.8,18.2,41.2"/>
</g>
<g>
	<path class="st0" d="M127.2,34.4c-3.2,13.8-10.1,30.7-20,47.9c-21.1,36.6-48.2,60.6-60.4,53.5s-5-42.5,16.2-79.1
		c21.1-36.6,48.2-60.6,60.4-53.5c4.8,2.8,6.6,9.8,5.7,19.6"/>
</g>
<g>
	<circle class="st1" cx="128.9" cy="28.7" r="6.1"/>
</g>
<g>
	<circle class="st0" cx="128.9" cy="28.7" r="6.1"/>
</g>
<g>
	<circle class="st1" cx="29.1" cy="86.2" r="6.1"/>
</g>
<g>
	<circle class="st0" cx="29.1" cy="86.2" r="6.1"/>
</g>
<g>
	<circle class="st1" cx="125.9" cy="104.2" r="6.1"/>
</g>
<g>
	<circle class="st0" cx="125.9" cy="104.2" r="6.1"/>
</g>
<g>
	<circle class="st2" cx="85.1" cy="69.5" r="10.6"/>
</g>
<g>
	<circle class="st0" cx="85.1" cy="69.5" r="10.6"/>
</g>
<g>
	<path class="st3" d="M244,33.6v76.6h-1.3c-0.5,0-0.9-0.2-1.2-0.7l-52.6-71.1c0,0.3,0.1,0.7,0.1,1c0,0.3,0,0.7,0,1v69.8h-2.6V33.6
		h1.4c0.3,0,0.5,0,0.7,0.1c0.2,0.1,0.4,0.3,0.6,0.6l52.4,70.8c0-0.3-0.1-0.7-0.1-1c0-0.3,0-0.6,0-0.9V33.6H244z"/>
	<path class="st3" d="M313.6,107.7l-0.1,2.6h-45.2V33.6h45.2v2.6h-42.2v34h35.6v2.5h-35.6v35H313.6z"/>
	<path class="st3" d="M358.9,108.5c4,0,7.5-0.7,10.6-2.1s5.7-3.3,7.9-5.8c2.2-2.4,3.8-5.3,5-8.6s1.7-6.8,1.7-10.6V33.6h3.1v47.9
		c0,4.1-0.7,8-2,11.6c-1.3,3.6-3.2,6.8-5.6,9.5c-2.5,2.7-5.4,4.8-8.9,6.3c-3.5,1.5-7.4,2.3-11.7,2.3c-4.4,0-8.3-0.8-11.8-2.3
		c-3.5-1.5-6.4-3.7-8.9-6.3c-2.4-2.7-4.3-5.8-5.6-9.5c-1.3-3.6-2-7.5-2-11.6V33.6h3v47.7c0,3.8,0.6,7.3,1.7,10.6
		c1.1,3.3,2.8,6.2,5,8.6c2.2,2.5,4.8,4.4,7.9,5.8C351.4,107.8,354.9,108.5,358.9,108.5z"/>
	<path class="st3" d="M459.2,36.3h-28.1v74h-3v-74h-28.2v-2.6h59.3V36.3z"/>
	<path class="st3" d="M523.8,110.3h-2.5c-0.4,0-0.8-0.1-1.1-0.2c-0.3-0.1-0.6-0.4-0.9-0.8l-27-33.1c-0.3-0.4-0.6-0.7-0.9-1
		c-0.3-0.3-0.7-0.5-1-0.6c-0.4-0.2-0.8-0.3-1.4-0.4c-0.5-0.1-1.2-0.1-1.9-0.1h-11.2v36.1h-3V33.6h18.5c8.3,0,14.6,1.6,19,4.9
		c4.3,3.2,6.5,8.1,6.5,14.7c0,3-0.6,5.8-1.7,8.2c-1.1,2.5-2.7,4.6-4.7,6.4c-2,1.8-4.5,3.2-7.4,4.3c-2.9,1.1-6.1,1.7-9.6,1.9
		c0.7,0.4,1.3,0.9,1.9,1.6L523.8,110.3z M475.9,71.9h14.6c3.6,0,6.8-0.4,9.7-1.3c2.9-0.9,5.3-2.1,7.4-3.7c2-1.6,3.6-3.6,4.6-5.9
		c1.1-2.3,1.6-4.9,1.6-7.7c0-5.9-1.9-10.3-5.8-13.1c-3.9-2.8-9.4-4.2-16.7-4.2h-15.5V71.9z"/>
	<path class="st3" d="M604.4,72c0,6-0.9,11.4-2.6,16.2s-4.2,8.9-7.4,12.3c-3.2,3.4-6.9,6-11.3,7.8c-4.4,1.8-9.3,2.7-14.6,2.7
		c-5.3,0-10.1-0.9-14.5-2.7c-4.4-1.8-8.2-4.4-11.3-7.8c-3.2-3.4-5.6-7.5-7.4-12.3s-2.6-10.2-2.6-16.2c0-6,0.9-11.4,2.6-16.2
		c1.7-4.8,4.2-8.9,7.4-12.3c3.2-3.4,6.9-6,11.3-7.9c4.4-1.9,9.2-2.8,14.5-2.8c5.3,0,10.2,0.9,14.6,2.8c4.4,1.8,8.2,4.5,11.3,7.8
		c3.2,3.4,5.6,7.5,7.4,12.3C603.5,60.5,604.4,66,604.4,72z M601.2,72c0-5.7-0.8-10.8-2.4-15.3s-3.8-8.4-6.7-11.5
		c-2.9-3.2-6.3-5.6-10.4-7.2c-4-1.7-8.5-2.5-13.3-2.5c-4.8,0-9.2,0.8-13.2,2.5c-4,1.7-7.5,4.1-10.4,7.2c-2.9,3.2-5.1,7-6.8,11.5
		c-1.6,4.5-2.4,9.6-2.4,15.3c0,5.7,0.8,10.8,2.4,15.3c1.6,4.5,3.9,8.3,6.8,11.5s6.3,5.5,10.4,7.2c4,1.7,8.4,2.5,13.2,2.5
		c4.9,0,9.3-0.8,13.3-2.5c4-1.7,7.5-4.1,10.4-7.2c2.9-3.1,5.1-6.9,6.7-11.5S601.2,77.7,601.2,72z"/>
	<path class="st3" d="M681.1,33.6v76.6h-1.3c-0.5,0-0.9-0.2-1.2-0.7l-52.6-71.1c0,0.3,0.1,0.7,0.1,1c0,0.3,0,0.7,0,1v69.8h-2.6V33.6
		h1.4c0.3,0,0.5,0,0.7,0.1c0.2,0.1,0.4,0.3,0.6,0.6l52.4,70.8c0-0.3-0.1-0.7-0.1-1c0-0.3,0-0.6,0-0.9V33.6H681.1z"/>
	<path class="st3" d="M708.5,70h4.9c0.7,0,1.3,0,1.8-0.1c0.5,0,0.9-0.1,1.4-0.3c0.4-0.1,0.8-0.3,1.1-0.6c0.3-0.3,0.7-0.6,1.1-1
		l33.8-33.3c0.4-0.4,0.8-0.7,1.2-0.9s0.8-0.2,1.3-0.2h2.2l-35.7,35.2c-0.7,0.6-1.2,1.1-1.7,1.4c-0.5,0.3-1,0.6-1.7,0.8
		c0.7,0.2,1.3,0.4,1.8,0.8c0.5,0.3,1,0.8,1.6,1.4l37.8,37.1h-2.2c-0.7,0-1.2-0.1-1.5-0.2c-0.3-0.2-0.6-0.4-0.9-0.8l-35.5-34.6
		c-0.4-0.4-0.8-0.7-1.1-1s-0.7-0.5-1.1-0.7c-0.4-0.2-0.9-0.3-1.4-0.4s-1.3-0.1-2.2-0.1h-5.1v37.9h-3V33.6h3V70z"/>
	<path class="st3" d="M776.1,110.3h-3V33.6h3V110.3z"/>
	<path class="st3" d="M849.1,36.3H821v74h-3v-74h-28.2v-2.6h59.3V36.3z"/>
</g>
</svg>
