<?xml version="1.0" encoding="utf-8"?>
<!-- Generator: Adobe Illustrator 19.1.0, SVG Export Plug-In . SVG Version: 6.00 Build 0)  -->
<svg version="1.1" id="Layer_1" xmlns="http://www.w3.org/2000/svg" xmlns:xlink="http://www.w3.org/1999/xlink" x="0px" y="0px"
	 viewBox="0 0 888 140" style="enable-background:new 0 0 888 140;" xml:space="preserve">
<style type="text/css">
	.st0{fill:none;stroke:#243C7B;stroke-width:2;stroke-linecap:round;stroke-linejoin:round;}
	.st1{fill:#A0CEE9;}
	.st2{fill:#E7CC9C;}
	.st3{fill:#243C7B;}
	.st4{font-family:'Lato-Thin';}
	.st5{font-size:109px;}
</style>
<g>
	<path class="st0" d="M23.1,84.5c-9.1-4.2-14.5-9.4-14.5-15C8.5,55.4,42.8,44,85.1,44s76.6,11.4,76.6,25.5
		c0,14.1-34.3,25.5-76.6,25.5c-19.2,0-36.8-2.4-50.3-6.3"/>
</g>
<g>
	<path class="st0" d="M128.3,110c2.3,13,0.8,22.5-4.9,25.8c-12.2,7.1-39.3-16.9-60.4-53.5s-28.4-72-16.2-79.1
		C59-3.8,86.1,20.1,107.2,56.8c8.4,14.5,14.6,28.8,18.2,41.2"/>
</g>
<g>
	<path class="st0" d="M127.2,34.4c-3.2,13.8-10.1,30.7-20,47.9c-21.1,36.6-48.2,60.6-60.4,53.5s-5-42.5,16.2-79.1
		c21.1-36.6,48.2-60.6,60.4-53.5c4.8,2.8,6.6,9.8,5.7,19.6"/>
</g>
<g>
	<circle class="st1" cx="128.9" cy="28.7" r="6.1"/>
</g>
<g>
	<circle class="st0" cx="128.9" cy="28.7" r="6.1"/>
</g>
<g>
	<circle class="st1" cx="29.1" cy="86.2" r="6.1"/>
</g>
<g>
	<circle class="st0" cx="29.1" cy="86.2" r="6.1"/>
</g>
<g>
	<circle class="st1" cx="125.9" cy="104.2" r="6.1"/>
</g>
<g>
	<circle class="st0" cx="125.9" cy="104.2" r="6.1"/>
</g>
<g>
	<circle class="st2" cx="85.1" cy="69.5" r="10.6"/>
</g>
<g>
	<circle class="st0" cx="85.1" cy="69.5" r="10.6"/>
</g>
<text transform="matrix(1 0 0 1 174.2457 110.2665)" class="st3 st4 st5">NEUTRONKIT</text>
</svg>
